<svg xmlns="http://www.w3.org/2000/svg" xmlns:xlink="http://www.w3.org/1999/xlink" width="2042.862" height="1157.854" viewBox="0 0 2042.862 1157.854">
  <defs>
    <clipPath id="clip-path">
      <rect width="2042.862" height="1157.854" fill="none"/>
    </clipPath>
    <radialGradient id="radial-gradient" cx="0.5" cy="0.5" r="0.664" gradientTransform="translate(0.932 0.935) rotate(180) scale(0.863 0.869)" gradientUnits="objectBoundingBox">
      <stop offset="0" stop-color="#0ec1f8"/>
      <stop offset="1" stop-color="#07647c"/>
    </radialGradient>
  </defs>
  <g id="Group_9" data-name="Group 9" transform="translate(-113 -57)">
    <g id="Repeat_Grid_1" data-name="Repeat Grid 1" transform="translate(113 57)" clip-path="url(#clip-path)">
      <g transform="translate(-113 -57)">
        <path id="Union_2" data-name="Union 2" d="M-1535.025,119.276-1564,69.144l-.077.132h-57.952L-1651,19.145l-.076.131h-57.952L-1738-30.862-1709.024-81h57.952l.076.132L-1622.025-131h57.952l28.975,50.138-28.9,50,28.892,49.994.076-.132h57.952l28.976,50.138-28.976,50.138Z" transform="translate(1851 188)" fill="url(#radial-gradient)"/>
      </g>
      <g transform="translate(61 -57)">
        <path id="Union_2-2" data-name="Union 2" d="M-1535.025,119.276-1564,69.144l-.077.132h-57.952L-1651,19.145l-.076.131h-57.952L-1738-30.862-1709.024-81h57.952l.076.132L-1622.025-131h57.952l28.975,50.138-28.9,50,28.892,49.994.076-.132h57.952l28.976,50.138-28.976,50.138Z" transform="translate(1851 188)" fill="url(#radial-gradient)"/>
      </g>
      <g transform="translate(235 -57)">
        <path id="Union_2-3" data-name="Union 2" d="M-1535.025,119.276-1564,69.144l-.077.132h-57.952L-1651,19.145l-.076.131h-57.952L-1738-30.862-1709.024-81h57.952l.076.132L-1622.025-131h57.952l28.975,50.138-28.9,50,28.892,49.994.076-.132h57.952l28.976,50.138-28.976,50.138Z" transform="translate(1851 188)" fill="url(#radial-gradient)"/>
      </g>
      <g transform="translate(409 -57)">
        <path id="Union_2-4" data-name="Union 2" d="M-1535.025,119.276-1564,69.144l-.077.132h-57.952L-1651,19.145l-.076.131h-57.952L-1738-30.862-1709.024-81h57.952l.076.132L-1622.025-131h57.952l28.975,50.138-28.9,50,28.892,49.994.076-.132h57.952l28.976,50.138-28.976,50.138Z" transform="translate(1851 188)" fill="url(#radial-gradient)"/>
      </g>
      <g transform="translate(583 -57)">
        <path id="Union_2-5" data-name="Union 2" d="M-1535.025,119.276-1564,69.144l-.077.132h-57.952L-1651,19.145l-.076.131h-57.952L-1738-30.862-1709.024-81h57.952l.076.132L-1622.025-131h57.952l28.975,50.138-28.9,50,28.892,49.994.076-.132h57.952l28.976,50.138-28.976,50.138Z" transform="translate(1851 188)" fill="url(#radial-gradient)"/>
      </g>
      <g transform="translate(757 -57)">
        <path id="Union_2-6" data-name="Union 2" d="M-1535.025,119.276-1564,69.144l-.077.132h-57.952L-1651,19.145l-.076.131h-57.952L-1738-30.862-1709.024-81h57.952l.076.132L-1622.025-131h57.952l28.975,50.138-28.9,50,28.892,49.994.076-.132h57.952l28.976,50.138-28.976,50.138Z" transform="translate(1851 188)" fill="url(#radial-gradient)"/>
      </g>
      <g transform="translate(931 -57)">
        <path id="Union_2-7" data-name="Union 2" d="M-1535.025,119.276-1564,69.144l-.077.132h-57.952L-1651,19.145l-.076.131h-57.952L-1738-30.862-1709.024-81h57.952l.076.132L-1622.025-131h57.952l28.975,50.138-28.9,50,28.892,49.994.076-.132h57.952l28.976,50.138-28.976,50.138Z" transform="translate(1851 188)" fill="url(#radial-gradient)"/>
      </g>
      <g transform="translate(1105 -57)">
        <path id="Union_2-8" data-name="Union 2" d="M-1535.025,119.276-1564,69.144l-.077.132h-57.952L-1651,19.145l-.076.131h-57.952L-1738-30.862-1709.024-81h57.952l.076.132L-1622.025-131h57.952l28.975,50.138-28.9,50,28.892,49.994.076-.132h57.952l28.976,50.138-28.976,50.138Z" transform="translate(1851 188)" fill="url(#radial-gradient)"/>
      </g>
      <g transform="translate(1279 -57)">
        <path id="Union_2-9" data-name="Union 2" d="M-1535.025,119.276-1564,69.144l-.077.132h-57.952L-1651,19.145l-.076.131h-57.952L-1738-30.862-1709.024-81h57.952l.076.132L-1622.025-131h57.952l28.975,50.138-28.9,50,28.892,49.994.076-.132h57.952l28.976,50.138-28.976,50.138Z" transform="translate(1851 188)" fill="url(#radial-gradient)"/>
      </g>
      <g transform="translate(1453 -57)">
        <path id="Union_2-10" data-name="Union 2" d="M-1535.025,119.276-1564,69.144l-.077.132h-57.952L-1651,19.145l-.076.131h-57.952L-1738-30.862-1709.024-81h57.952l.076.132L-1622.025-131h57.952l28.975,50.138-28.9,50,28.892,49.994.076-.132h57.952l28.976,50.138-28.976,50.138Z" transform="translate(1851 188)" fill="url(#radial-gradient)"/>
      </g>
      <g transform="translate(1627 -57)">
        <path id="Union_2-11" data-name="Union 2" d="M-1535.025,119.276-1564,69.144l-.077.132h-57.952L-1651,19.145l-.076.131h-57.952L-1738-30.862-1709.024-81h57.952l.076.132L-1622.025-131h57.952l28.975,50.138-28.9,50,28.892,49.994.076-.132h57.952l28.976,50.138-28.976,50.138Z" transform="translate(1851 188)" fill="url(#radial-gradient)"/>
      </g>
      <g transform="translate(1801 -57)">
        <path id="Union_2-12" data-name="Union 2" d="M-1535.025,119.276-1564,69.144l-.077.132h-57.952L-1651,19.145l-.076.131h-57.952L-1738-30.862-1709.024-81h57.952l.076.132L-1622.025-131h57.952l28.975,50.138-28.9,50,28.892,49.994.076-.132h57.952l28.976,50.138-28.976,50.138Z" transform="translate(1851 188)" fill="url(#radial-gradient)"/>
      </g>
      <g transform="translate(-113 141)">
        <path id="Union_2-13" data-name="Union 2" d="M-1535.025,119.276-1564,69.144l-.077.132h-57.952L-1651,19.145l-.076.131h-57.952L-1738-30.862-1709.024-81h57.952l.076.132L-1622.025-131h57.952l28.975,50.138-28.9,50,28.892,49.994.076-.132h57.952l28.976,50.138-28.976,50.138Z" transform="translate(1851 188)" fill="url(#radial-gradient)"/>
      </g>
      <g transform="translate(61 141)">
        <path id="Union_2-14" data-name="Union 2" d="M-1535.025,119.276-1564,69.144l-.077.132h-57.952L-1651,19.145l-.076.131h-57.952L-1738-30.862-1709.024-81h57.952l.076.132L-1622.025-131h57.952l28.975,50.138-28.9,50,28.892,49.994.076-.132h57.952l28.976,50.138-28.976,50.138Z" transform="translate(1851 188)" fill="url(#radial-gradient)"/>
      </g>
      <g transform="translate(235 141)">
        <path id="Union_2-15" data-name="Union 2" d="M-1535.025,119.276-1564,69.144l-.077.132h-57.952L-1651,19.145l-.076.131h-57.952L-1738-30.862-1709.024-81h57.952l.076.132L-1622.025-131h57.952l28.975,50.138-28.9,50,28.892,49.994.076-.132h57.952l28.976,50.138-28.976,50.138Z" transform="translate(1851 188)" fill="url(#radial-gradient)"/>
      </g>
      <g transform="translate(409 141)">
        <path id="Union_2-16" data-name="Union 2" d="M-1535.025,119.276-1564,69.144l-.077.132h-57.952L-1651,19.145l-.076.131h-57.952L-1738-30.862-1709.024-81h57.952l.076.132L-1622.025-131h57.952l28.975,50.138-28.9,50,28.892,49.994.076-.132h57.952l28.976,50.138-28.976,50.138Z" transform="translate(1851 188)" fill="url(#radial-gradient)"/>
      </g>
      <g transform="translate(583 141)">
        <path id="Union_2-17" data-name="Union 2" d="M-1535.025,119.276-1564,69.144l-.077.132h-57.952L-1651,19.145l-.076.131h-57.952L-1738-30.862-1709.024-81h57.952l.076.132L-1622.025-131h57.952l28.975,50.138-28.9,50,28.892,49.994.076-.132h57.952l28.976,50.138-28.976,50.138Z" transform="translate(1851 188)" fill="url(#radial-gradient)"/>
      </g>
      <g transform="translate(757 141)">
        <path id="Union_2-18" data-name="Union 2" d="M-1535.025,119.276-1564,69.144l-.077.132h-57.952L-1651,19.145l-.076.131h-57.952L-1738-30.862-1709.024-81h57.952l.076.132L-1622.025-131h57.952l28.975,50.138-28.9,50,28.892,49.994.076-.132h57.952l28.976,50.138-28.976,50.138Z" transform="translate(1851 188)" fill="url(#radial-gradient)"/>
      </g>
      <g transform="translate(931 141)">
        <path id="Union_2-19" data-name="Union 2" d="M-1535.025,119.276-1564,69.144l-.077.132h-57.952L-1651,19.145l-.076.131h-57.952L-1738-30.862-1709.024-81h57.952l.076.132L-1622.025-131h57.952l28.975,50.138-28.9,50,28.892,49.994.076-.132h57.952l28.976,50.138-28.976,50.138Z" transform="translate(1851 188)" fill="url(#radial-gradient)"/>
      </g>
      <g transform="translate(1105 141)">
        <path id="Union_2-20" data-name="Union 2" d="M-1535.025,119.276-1564,69.144l-.077.132h-57.952L-1651,19.145l-.076.131h-57.952L-1738-30.862-1709.024-81h57.952l.076.132L-1622.025-131h57.952l28.975,50.138-28.9,50,28.892,49.994.076-.132h57.952l28.976,50.138-28.976,50.138Z" transform="translate(1851 188)" fill="url(#radial-gradient)"/>
      </g>
      <g transform="translate(1279 141)">
        <path id="Union_2-21" data-name="Union 2" d="M-1535.025,119.276-1564,69.144l-.077.132h-57.952L-1651,19.145l-.076.131h-57.952L-1738-30.862-1709.024-81h57.952l.076.132L-1622.025-131h57.952l28.975,50.138-28.9,50,28.892,49.994.076-.132h57.952l28.976,50.138-28.976,50.138Z" transform="translate(1851 188)" fill="url(#radial-gradient)"/>
      </g>
      <g transform="translate(1453 141)">
        <path id="Union_2-22" data-name="Union 2" d="M-1535.025,119.276-1564,69.144l-.077.132h-57.952L-1651,19.145l-.076.131h-57.952L-1738-30.862-1709.024-81h57.952l.076.132L-1622.025-131h57.952l28.975,50.138-28.9,50,28.892,49.994.076-.132h57.952l28.976,50.138-28.976,50.138Z" transform="translate(1851 188)" fill="url(#radial-gradient)"/>
      </g>
      <g transform="translate(1627 141)">
        <path id="Union_2-23" data-name="Union 2" d="M-1535.025,119.276-1564,69.144l-.077.132h-57.952L-1651,19.145l-.076.131h-57.952L-1738-30.862-1709.024-81h57.952l.076.132L-1622.025-131h57.952l28.975,50.138-28.9,50,28.892,49.994.076-.132h57.952l28.976,50.138-28.976,50.138Z" transform="translate(1851 188)" fill="url(#radial-gradient)"/>
      </g>
      <g transform="translate(1801 141)">
        <path id="Union_2-24" data-name="Union 2" d="M-1535.025,119.276-1564,69.144l-.077.132h-57.952L-1651,19.145l-.076.131h-57.952L-1738-30.862-1709.024-81h57.952l.076.132L-1622.025-131h57.952l28.975,50.138-28.9,50,28.892,49.994.076-.132h57.952l28.976,50.138-28.976,50.138Z" transform="translate(1851 188)" fill="url(#radial-gradient)"/>
      </g>
      <g transform="translate(-113 339)">
        <path id="Union_2-25" data-name="Union 2" d="M-1535.025,119.276-1564,69.144l-.077.132h-57.952L-1651,19.145l-.076.131h-57.952L-1738-30.862-1709.024-81h57.952l.076.132L-1622.025-131h57.952l28.975,50.138-28.9,50,28.892,49.994.076-.132h57.952l28.976,50.138-28.976,50.138Z" transform="translate(1851 188)" fill="url(#radial-gradient)"/>
      </g>
      <g transform="translate(61 339)">
        <path id="Union_2-26" data-name="Union 2" d="M-1535.025,119.276-1564,69.144l-.077.132h-57.952L-1651,19.145l-.076.131h-57.952L-1738-30.862-1709.024-81h57.952l.076.132L-1622.025-131h57.952l28.975,50.138-28.9,50,28.892,49.994.076-.132h57.952l28.976,50.138-28.976,50.138Z" transform="translate(1851 188)" fill="url(#radial-gradient)"/>
      </g>
      <g transform="translate(235 339)">
        <path id="Union_2-27" data-name="Union 2" d="M-1535.025,119.276-1564,69.144l-.077.132h-57.952L-1651,19.145l-.076.131h-57.952L-1738-30.862-1709.024-81h57.952l.076.132L-1622.025-131h57.952l28.975,50.138-28.9,50,28.892,49.994.076-.132h57.952l28.976,50.138-28.976,50.138Z" transform="translate(1851 188)" fill="url(#radial-gradient)"/>
      </g>
      <g transform="translate(409 339)">
        <path id="Union_2-28" data-name="Union 2" d="M-1535.025,119.276-1564,69.144l-.077.132h-57.952L-1651,19.145l-.076.131h-57.952L-1738-30.862-1709.024-81h57.952l.076.132L-1622.025-131h57.952l28.975,50.138-28.9,50,28.892,49.994.076-.132h57.952l28.976,50.138-28.976,50.138Z" transform="translate(1851 188)" fill="url(#radial-gradient)"/>
      </g>
      <g transform="translate(583 339)">
        <path id="Union_2-29" data-name="Union 2" d="M-1535.025,119.276-1564,69.144l-.077.132h-57.952L-1651,19.145l-.076.131h-57.952L-1738-30.862-1709.024-81h57.952l.076.132L-1622.025-131h57.952l28.975,50.138-28.9,50,28.892,49.994.076-.132h57.952l28.976,50.138-28.976,50.138Z" transform="translate(1851 188)" fill="url(#radial-gradient)"/>
      </g>
      <g transform="translate(757 339)">
        <path id="Union_2-30" data-name="Union 2" d="M-1535.025,119.276-1564,69.144l-.077.132h-57.952L-1651,19.145l-.076.131h-57.952L-1738-30.862-1709.024-81h57.952l.076.132L-1622.025-131h57.952l28.975,50.138-28.9,50,28.892,49.994.076-.132h57.952l28.976,50.138-28.976,50.138Z" transform="translate(1851 188)" fill="url(#radial-gradient)"/>
      </g>
      <g transform="translate(931 339)">
        <path id="Union_2-31" data-name="Union 2" d="M-1535.025,119.276-1564,69.144l-.077.132h-57.952L-1651,19.145l-.076.131h-57.952L-1738-30.862-1709.024-81h57.952l.076.132L-1622.025-131h57.952l28.975,50.138-28.9,50,28.892,49.994.076-.132h57.952l28.976,50.138-28.976,50.138Z" transform="translate(1851 188)" fill="url(#radial-gradient)"/>
      </g>
      <g transform="translate(1105 339)">
        <path id="Union_2-32" data-name="Union 2" d="M-1535.025,119.276-1564,69.144l-.077.132h-57.952L-1651,19.145l-.076.131h-57.952L-1738-30.862-1709.024-81h57.952l.076.132L-1622.025-131h57.952l28.975,50.138-28.9,50,28.892,49.994.076-.132h57.952l28.976,50.138-28.976,50.138Z" transform="translate(1851 188)" fill="url(#radial-gradient)"/>
      </g>
      <g transform="translate(1279 339)">
        <path id="Union_2-33" data-name="Union 2" d="M-1535.025,119.276-1564,69.144l-.077.132h-57.952L-1651,19.145l-.076.131h-57.952L-1738-30.862-1709.024-81h57.952l.076.132L-1622.025-131h57.952l28.975,50.138-28.9,50,28.892,49.994.076-.132h57.952l28.976,50.138-28.976,50.138Z" transform="translate(1851 188)" fill="url(#radial-gradient)"/>
      </g>
      <g transform="translate(1453 339)">
        <path id="Union_2-34" data-name="Union 2" d="M-1535.025,119.276-1564,69.144l-.077.132h-57.952L-1651,19.145l-.076.131h-57.952L-1738-30.862-1709.024-81h57.952l.076.132L-1622.025-131h57.952l28.975,50.138-28.9,50,28.892,49.994.076-.132h57.952l28.976,50.138-28.976,50.138Z" transform="translate(1851 188)" fill="url(#radial-gradient)"/>
      </g>
      <g transform="translate(1627 339)">
        <path id="Union_2-35" data-name="Union 2" d="M-1535.025,119.276-1564,69.144l-.077.132h-57.952L-1651,19.145l-.076.131h-57.952L-1738-30.862-1709.024-81h57.952l.076.132L-1622.025-131h57.952l28.975,50.138-28.9,50,28.892,49.994.076-.132h57.952l28.976,50.138-28.976,50.138Z" transform="translate(1851 188)" fill="url(#radial-gradient)"/>
      </g>
      <g transform="translate(1801 339)">
        <path id="Union_2-36" data-name="Union 2" d="M-1535.025,119.276-1564,69.144l-.077.132h-57.952L-1651,19.145l-.076.131h-57.952L-1738-30.862-1709.024-81h57.952l.076.132L-1622.025-131h57.952l28.975,50.138-28.9,50,28.892,49.994.076-.132h57.952l28.976,50.138-28.976,50.138Z" transform="translate(1851 188)" fill="url(#radial-gradient)"/>
      </g>
      <g transform="translate(-113 537)">
        <path id="Union_2-37" data-name="Union 2" d="M-1535.025,119.276-1564,69.144l-.077.132h-57.952L-1651,19.145l-.076.131h-57.952L-1738-30.862-1709.024-81h57.952l.076.132L-1622.025-131h57.952l28.975,50.138-28.9,50,28.892,49.994.076-.132h57.952l28.976,50.138-28.976,50.138Z" transform="translate(1851 188)" fill="url(#radial-gradient)"/>
      </g>
      <g transform="translate(61 537)">
        <path id="Union_2-38" data-name="Union 2" d="M-1535.025,119.276-1564,69.144l-.077.132h-57.952L-1651,19.145l-.076.131h-57.952L-1738-30.862-1709.024-81h57.952l.076.132L-1622.025-131h57.952l28.975,50.138-28.9,50,28.892,49.994.076-.132h57.952l28.976,50.138-28.976,50.138Z" transform="translate(1851 188)" fill="url(#radial-gradient)"/>
      </g>
      <g transform="translate(235 537)">
        <path id="Union_2-39" data-name="Union 2" d="M-1535.025,119.276-1564,69.144l-.077.132h-57.952L-1651,19.145l-.076.131h-57.952L-1738-30.862-1709.024-81h57.952l.076.132L-1622.025-131h57.952l28.975,50.138-28.9,50,28.892,49.994.076-.132h57.952l28.976,50.138-28.976,50.138Z" transform="translate(1851 188)" fill="url(#radial-gradient)"/>
      </g>
      <g transform="translate(409 537)">
        <path id="Union_2-40" data-name="Union 2" d="M-1535.025,119.276-1564,69.144l-.077.132h-57.952L-1651,19.145l-.076.131h-57.952L-1738-30.862-1709.024-81h57.952l.076.132L-1622.025-131h57.952l28.975,50.138-28.9,50,28.892,49.994.076-.132h57.952l28.976,50.138-28.976,50.138Z" transform="translate(1851 188)" fill="url(#radial-gradient)"/>
      </g>
      <g transform="translate(583 537)">
        <path id="Union_2-41" data-name="Union 2" d="M-1535.025,119.276-1564,69.144l-.077.132h-57.952L-1651,19.145l-.076.131h-57.952L-1738-30.862-1709.024-81h57.952l.076.132L-1622.025-131h57.952l28.975,50.138-28.9,50,28.892,49.994.076-.132h57.952l28.976,50.138-28.976,50.138Z" transform="translate(1851 188)" fill="url(#radial-gradient)"/>
      </g>
      <g transform="translate(757 537)">
        <path id="Union_2-42" data-name="Union 2" d="M-1535.025,119.276-1564,69.144l-.077.132h-57.952L-1651,19.145l-.076.131h-57.952L-1738-30.862-1709.024-81h57.952l.076.132L-1622.025-131h57.952l28.975,50.138-28.9,50,28.892,49.994.076-.132h57.952l28.976,50.138-28.976,50.138Z" transform="translate(1851 188)" fill="url(#radial-gradient)"/>
      </g>
      <g transform="translate(931 537)">
        <path id="Union_2-43" data-name="Union 2" d="M-1535.025,119.276-1564,69.144l-.077.132h-57.952L-1651,19.145l-.076.131h-57.952L-1738-30.862-1709.024-81h57.952l.076.132L-1622.025-131h57.952l28.975,50.138-28.9,50,28.892,49.994.076-.132h57.952l28.976,50.138-28.976,50.138Z" transform="translate(1851 188)" fill="url(#radial-gradient)"/>
      </g>
      <g transform="translate(1105 537)">
        <path id="Union_2-44" data-name="Union 2" d="M-1535.025,119.276-1564,69.144l-.077.132h-57.952L-1651,19.145l-.076.131h-57.952L-1738-30.862-1709.024-81h57.952l.076.132L-1622.025-131h57.952l28.975,50.138-28.9,50,28.892,49.994.076-.132h57.952l28.976,50.138-28.976,50.138Z" transform="translate(1851 188)" fill="url(#radial-gradient)"/>
      </g>
      <g transform="translate(1279 537)">
        <path id="Union_2-45" data-name="Union 2" d="M-1535.025,119.276-1564,69.144l-.077.132h-57.952L-1651,19.145l-.076.131h-57.952L-1738-30.862-1709.024-81h57.952l.076.132L-1622.025-131h57.952l28.975,50.138-28.9,50,28.892,49.994.076-.132h57.952l28.976,50.138-28.976,50.138Z" transform="translate(1851 188)" fill="url(#radial-gradient)"/>
      </g>
      <g transform="translate(1453 537)">
        <path id="Union_2-46" data-name="Union 2" d="M-1535.025,119.276-1564,69.144l-.077.132h-57.952L-1651,19.145l-.076.131h-57.952L-1738-30.862-1709.024-81h57.952l.076.132L-1622.025-131h57.952l28.975,50.138-28.9,50,28.892,49.994.076-.132h57.952l28.976,50.138-28.976,50.138Z" transform="translate(1851 188)" fill="url(#radial-gradient)"/>
      </g>
      <g transform="translate(1627 537)">
        <path id="Union_2-47" data-name="Union 2" d="M-1535.025,119.276-1564,69.144l-.077.132h-57.952L-1651,19.145l-.076.131h-57.952L-1738-30.862-1709.024-81h57.952l.076.132L-1622.025-131h57.952l28.975,50.138-28.9,50,28.892,49.994.076-.132h57.952l28.976,50.138-28.976,50.138Z" transform="translate(1851 188)" fill="url(#radial-gradient)"/>
      </g>
      <g transform="translate(1801 537)">
        <path id="Union_2-48" data-name="Union 2" d="M-1535.025,119.276-1564,69.144l-.077.132h-57.952L-1651,19.145l-.076.131h-57.952L-1738-30.862-1709.024-81h57.952l.076.132L-1622.025-131h57.952l28.975,50.138-28.9,50,28.892,49.994.076-.132h57.952l28.976,50.138-28.976,50.138Z" transform="translate(1851 188)" fill="url(#radial-gradient)"/>
      </g>
      <g transform="translate(-113 735)">
        <path id="Union_2-49" data-name="Union 2" d="M-1535.025,119.276-1564,69.144l-.077.132h-57.952L-1651,19.145l-.076.131h-57.952L-1738-30.862-1709.024-81h57.952l.076.132L-1622.025-131h57.952l28.975,50.138-28.9,50,28.892,49.994.076-.132h57.952l28.976,50.138-28.976,50.138Z" transform="translate(1851 188)" fill="url(#radial-gradient)"/>
      </g>
      <g transform="translate(61 735)">
        <path id="Union_2-50" data-name="Union 2" d="M-1535.025,119.276-1564,69.144l-.077.132h-57.952L-1651,19.145l-.076.131h-57.952L-1738-30.862-1709.024-81h57.952l.076.132L-1622.025-131h57.952l28.975,50.138-28.9,50,28.892,49.994.076-.132h57.952l28.976,50.138-28.976,50.138Z" transform="translate(1851 188)" fill="url(#radial-gradient)"/>
      </g>
      <g transform="translate(235 735)">
        <path id="Union_2-51" data-name="Union 2" d="M-1535.025,119.276-1564,69.144l-.077.132h-57.952L-1651,19.145l-.076.131h-57.952L-1738-30.862-1709.024-81h57.952l.076.132L-1622.025-131h57.952l28.975,50.138-28.9,50,28.892,49.994.076-.132h57.952l28.976,50.138-28.976,50.138Z" transform="translate(1851 188)" fill="url(#radial-gradient)"/>
      </g>
      <g transform="translate(409 735)">
        <path id="Union_2-52" data-name="Union 2" d="M-1535.025,119.276-1564,69.144l-.077.132h-57.952L-1651,19.145l-.076.131h-57.952L-1738-30.862-1709.024-81h57.952l.076.132L-1622.025-131h57.952l28.975,50.138-28.9,50,28.892,49.994.076-.132h57.952l28.976,50.138-28.976,50.138Z" transform="translate(1851 188)" fill="url(#radial-gradient)"/>
      </g>
      <g transform="translate(583 735)">
        <path id="Union_2-53" data-name="Union 2" d="M-1535.025,119.276-1564,69.144l-.077.132h-57.952L-1651,19.145l-.076.131h-57.952L-1738-30.862-1709.024-81h57.952l.076.132L-1622.025-131h57.952l28.975,50.138-28.9,50,28.892,49.994.076-.132h57.952l28.976,50.138-28.976,50.138Z" transform="translate(1851 188)" fill="url(#radial-gradient)"/>
      </g>
      <g transform="translate(757 735)">
        <path id="Union_2-54" data-name="Union 2" d="M-1535.025,119.276-1564,69.144l-.077.132h-57.952L-1651,19.145l-.076.131h-57.952L-1738-30.862-1709.024-81h57.952l.076.132L-1622.025-131h57.952l28.975,50.138-28.9,50,28.892,49.994.076-.132h57.952l28.976,50.138-28.976,50.138Z" transform="translate(1851 188)" fill="url(#radial-gradient)"/>
      </g>
      <g transform="translate(931 735)">
        <path id="Union_2-55" data-name="Union 2" d="M-1535.025,119.276-1564,69.144l-.077.132h-57.952L-1651,19.145l-.076.131h-57.952L-1738-30.862-1709.024-81h57.952l.076.132L-1622.025-131h57.952l28.975,50.138-28.9,50,28.892,49.994.076-.132h57.952l28.976,50.138-28.976,50.138Z" transform="translate(1851 188)" fill="url(#radial-gradient)"/>
      </g>
      <g transform="translate(1105 735)">
        <path id="Union_2-56" data-name="Union 2" d="M-1535.025,119.276-1564,69.144l-.077.132h-57.952L-1651,19.145l-.076.131h-57.952L-1738-30.862-1709.024-81h57.952l.076.132L-1622.025-131h57.952l28.975,50.138-28.9,50,28.892,49.994.076-.132h57.952l28.976,50.138-28.976,50.138Z" transform="translate(1851 188)" fill="url(#radial-gradient)"/>
      </g>
      <g transform="translate(1279 735)">
        <path id="Union_2-57" data-name="Union 2" d="M-1535.025,119.276-1564,69.144l-.077.132h-57.952L-1651,19.145l-.076.131h-57.952L-1738-30.862-1709.024-81h57.952l.076.132L-1622.025-131h57.952l28.975,50.138-28.9,50,28.892,49.994.076-.132h57.952l28.976,50.138-28.976,50.138Z" transform="translate(1851 188)" fill="url(#radial-gradient)"/>
      </g>
      <g transform="translate(1453 735)">
        <path id="Union_2-58" data-name="Union 2" d="M-1535.025,119.276-1564,69.144l-.077.132h-57.952L-1651,19.145l-.076.131h-57.952L-1738-30.862-1709.024-81h57.952l.076.132L-1622.025-131h57.952l28.975,50.138-28.9,50,28.892,49.994.076-.132h57.952l28.976,50.138-28.976,50.138Z" transform="translate(1851 188)" fill="url(#radial-gradient)"/>
      </g>
      <g transform="translate(1627 735)">
        <path id="Union_2-59" data-name="Union 2" d="M-1535.025,119.276-1564,69.144l-.077.132h-57.952L-1651,19.145l-.076.131h-57.952L-1738-30.862-1709.024-81h57.952l.076.132L-1622.025-131h57.952l28.975,50.138-28.9,50,28.892,49.994.076-.132h57.952l28.976,50.138-28.976,50.138Z" transform="translate(1851 188)" fill="url(#radial-gradient)"/>
      </g>
      <g transform="translate(1801 735)">
        <path id="Union_2-60" data-name="Union 2" d="M-1535.025,119.276-1564,69.144l-.077.132h-57.952L-1651,19.145l-.076.131h-57.952L-1738-30.862-1709.024-81h57.952l.076.132L-1622.025-131h57.952l28.975,50.138-28.9,50,28.892,49.994.076-.132h57.952l28.976,50.138-28.976,50.138Z" transform="translate(1851 188)" fill="url(#radial-gradient)"/>
      </g>
      <g transform="translate(-113 933)">
        <path id="Union_2-61" data-name="Union 2" d="M-1535.025,119.276-1564,69.144l-.077.132h-57.952L-1651,19.145l-.076.131h-57.952L-1738-30.862-1709.024-81h57.952l.076.132L-1622.025-131h57.952l28.975,50.138-28.9,50,28.892,49.994.076-.132h57.952l28.976,50.138-28.976,50.138Z" transform="translate(1851 188)" fill="url(#radial-gradient)"/>
      </g>
      <g transform="translate(61 933)">
        <path id="Union_2-62" data-name="Union 2" d="M-1535.025,119.276-1564,69.144l-.077.132h-57.952L-1651,19.145l-.076.131h-57.952L-1738-30.862-1709.024-81h57.952l.076.132L-1622.025-131h57.952l28.975,50.138-28.9,50,28.892,49.994.076-.132h57.952l28.976,50.138-28.976,50.138Z" transform="translate(1851 188)" fill="url(#radial-gradient)"/>
      </g>
      <g transform="translate(235 933)">
        <path id="Union_2-63" data-name="Union 2" d="M-1535.025,119.276-1564,69.144l-.077.132h-57.952L-1651,19.145l-.076.131h-57.952L-1738-30.862-1709.024-81h57.952l.076.132L-1622.025-131h57.952l28.975,50.138-28.9,50,28.892,49.994.076-.132h57.952l28.976,50.138-28.976,50.138Z" transform="translate(1851 188)" fill="url(#radial-gradient)"/>
      </g>
      <g transform="translate(409 933)">
        <path id="Union_2-64" data-name="Union 2" d="M-1535.025,119.276-1564,69.144l-.077.132h-57.952L-1651,19.145l-.076.131h-57.952L-1738-30.862-1709.024-81h57.952l.076.132L-1622.025-131h57.952l28.975,50.138-28.9,50,28.892,49.994.076-.132h57.952l28.976,50.138-28.976,50.138Z" transform="translate(1851 188)" fill="url(#radial-gradient)"/>
      </g>
      <g transform="translate(583 933)">
        <path id="Union_2-65" data-name="Union 2" d="M-1535.025,119.276-1564,69.144l-.077.132h-57.952L-1651,19.145l-.076.131h-57.952L-1738-30.862-1709.024-81h57.952l.076.132L-1622.025-131h57.952l28.975,50.138-28.9,50,28.892,49.994.076-.132h57.952l28.976,50.138-28.976,50.138Z" transform="translate(1851 188)" fill="url(#radial-gradient)"/>
      </g>
      <g transform="translate(757 933)">
        <path id="Union_2-66" data-name="Union 2" d="M-1535.025,119.276-1564,69.144l-.077.132h-57.952L-1651,19.145l-.076.131h-57.952L-1738-30.862-1709.024-81h57.952l.076.132L-1622.025-131h57.952l28.975,50.138-28.9,50,28.892,49.994.076-.132h57.952l28.976,50.138-28.976,50.138Z" transform="translate(1851 188)" fill="url(#radial-gradient)"/>
      </g>
      <g transform="translate(931 933)">
        <path id="Union_2-67" data-name="Union 2" d="M-1535.025,119.276-1564,69.144l-.077.132h-57.952L-1651,19.145l-.076.131h-57.952L-1738-30.862-1709.024-81h57.952l.076.132L-1622.025-131h57.952l28.975,50.138-28.9,50,28.892,49.994.076-.132h57.952l28.976,50.138-28.976,50.138Z" transform="translate(1851 188)" fill="url(#radial-gradient)"/>
      </g>
      <g transform="translate(1105 933)">
        <path id="Union_2-68" data-name="Union 2" d="M-1535.025,119.276-1564,69.144l-.077.132h-57.952L-1651,19.145l-.076.131h-57.952L-1738-30.862-1709.024-81h57.952l.076.132L-1622.025-131h57.952l28.975,50.138-28.9,50,28.892,49.994.076-.132h57.952l28.976,50.138-28.976,50.138Z" transform="translate(1851 188)" fill="url(#radial-gradient)"/>
      </g>
      <g transform="translate(1279 933)">
        <path id="Union_2-69" data-name="Union 2" d="M-1535.025,119.276-1564,69.144l-.077.132h-57.952L-1651,19.145l-.076.131h-57.952L-1738-30.862-1709.024-81h57.952l.076.132L-1622.025-131h57.952l28.975,50.138-28.9,50,28.892,49.994.076-.132h57.952l28.976,50.138-28.976,50.138Z" transform="translate(1851 188)" fill="url(#radial-gradient)"/>
      </g>
      <g transform="translate(1453 933)">
        <path id="Union_2-70" data-name="Union 2" d="M-1535.025,119.276-1564,69.144l-.077.132h-57.952L-1651,19.145l-.076.131h-57.952L-1738-30.862-1709.024-81h57.952l.076.132L-1622.025-131h57.952l28.975,50.138-28.9,50,28.892,49.994.076-.132h57.952l28.976,50.138-28.976,50.138Z" transform="translate(1851 188)" fill="url(#radial-gradient)"/>
      </g>
      <g transform="translate(1627 933)">
        <path id="Union_2-71" data-name="Union 2" d="M-1535.025,119.276-1564,69.144l-.077.132h-57.952L-1651,19.145l-.076.131h-57.952L-1738-30.862-1709.024-81h57.952l.076.132L-1622.025-131h57.952l28.975,50.138-28.9,50,28.892,49.994.076-.132h57.952l28.976,50.138-28.976,50.138Z" transform="translate(1851 188)" fill="url(#radial-gradient)"/>
      </g>
      <g transform="translate(1801 933)">
        <path id="Union_2-72" data-name="Union 2" d="M-1535.025,119.276-1564,69.144l-.077.132h-57.952L-1651,19.145l-.076.131h-57.952L-1738-30.862-1709.024-81h57.952l.076.132L-1622.025-131h57.952l28.975,50.138-28.9,50,28.892,49.994.076-.132h57.952l28.976,50.138-28.976,50.138Z" transform="translate(1851 188)" fill="url(#radial-gradient)"/>
      </g>
    </g>
  </g>
</svg>
